<?xml version="1.0" encoding="utf-8"?>
<!-- Generator: Adobe Illustrator 27.1.1, SVG Export Plug-In . SVG Version: 6.00 Build 0)  -->
<svg version="1.1" id="Layer_1" xmlns="http://www.w3.org/2000/svg" xmlns:xlink="http://www.w3.org/1999/xlink" x="0px" y="0px"
	 viewBox="0 0 1000 1000" style="enable-background:new 0 0 1000 1000;" xml:space="preserve">
<g>
	<path d="M344.25,506.27l0.08-0.08c-0.03,0-0.05,0-0.08-0.01C344.25,506.21,344.25,506.24,344.25,506.27z"/>
	<path d="M743.95,713.45c3.35-15.3,11.65-29.25,18.78-43.34c32.61-64.43,42.57-140.06,27.76-210.74
		c-7.05-33.63-21.39-68.45-50.64-86.48c-20.94-12.91-46.47-15.37-69.71-23.45c-5.55-1.93-11.18-4.32-15.15-8.66
		c-5.58-6.09-6.88-14.81-8.69-22.87c-7.29-32.46-33.75-65.29-66.85-61.99c-8.43,0.84-21.28,0.25-20.27-8.16
		c0.35-2.91,2.66-5.13,4.63-7.31c12.89-14.23,14.87-37.2,4.62-53.42c17.79-11.07,35.58-22.13,53.37-33.2
		c4.18-2.6,8.8-5.87,9.3-10.77c0.59-5.68-4.64-10.12-9.48-13.15c-33.06-20.68-74.43-27.63-112.44-18.89
		c0.26-14.02-10.4-26.51-23.22-32.18c-12.83-5.67-27.4-5.72-41.37-4.48c-31.77,2.82-62.98,11.9-91.31,26.55
		c-6.36,3.29-12.75,7.01-17.11,12.69c-15.05,19.6,1.5,48.4-4.4,72.41c-0.21,0.85-13.2,4.56-14.83,5.31
		c-5.07,2.33-9.94,5.12-14.52,8.31c-9.46,6.56-17.74,14.81-24.32,24.25c-10.53,15.11-21.4,44.45,2.76,53.94
		c11.25,4.42,24.05,1.08,35.09-3.84c5.33-2.37,10.55-5.12,15.86-7.57c5.69-2.64,11.48-4.93,17.63-6.07
		c-3.97,3.98-7.94,7.96-11.91,11.95c2.18,14.03,15.85,22.71,27.25,31.17c3.85,2.86,7.69,6.32,10.89,10.16
		c6.26,7.52,10.06,16.5,6.67,25.27c-3.15,8.15-11.51,12.86-19.32,16.77c-7.82,3.9-16.27,8.22-20,16.12
		c-3.74,7.9,1.06,19.92,9.78,19.42c-36.68,22.87-63.88,60.47-74.12,102.46c-5.61,22.97-7.17,48.79-23.53,65.85
		c-8.81,9.18-21.52,15.26-26.59,26.94c-2.87,6.62-2.79,14.08-3.64,21.25c-2.63,22.2-14.39,42.28-19.27,64.1
		c-5.95,26.61-1.41,54.32,3.14,81.2c0.85,5.02,2.05,10.61,6.31,13.4c3.64,2.39,8.38,1.94,12.7,1.4c22.14-2.76,44.27-5.52,66.41-8.27
		c-15.74,57.32-36.69,113.21-62.51,166.76c172.63-0.08,345.25-0.16,517.88-0.25c5.62-55.91,4.25-112.52-4.08-168.09
		c-1.93-12.92-4.25-26.01-2.52-38.96C743.22,717.12,743.55,715.28,743.95,713.45z M480.04,87.46c2.58,1.25,5.08,2.79,7.4,4.58
		c-14.49,11.52-34.67,15.85-52.5,10.66C450.84,100.83,468.73,97.63,480.04,87.46z M476.73,477.5c-0.03-0.91,0.19-1.6,1.3-1.52
		c1.16,0.09,1.27-0.64,1.24-1.53c-0.02-0.47,0.02-0.95-0.01-1.43c-0.05-1.11-0.05-2.13,1.55-1.98c0.73,0.08,0.94-0.43,0.94-1.07
		c0-0.24,0.02-0.48,0.02-0.72c0.03-3.61-0.43-2.95,3.27-3.26c1.63-0.14,1.79,0.1,1.86,1.67c0.02,0.31,0.01,0.63,0.01,1.49
		c-0.01,0.1,0.07,0.77-0.09,1.37c-0.33,1.15-1.67,0.23-2.22,0.95c-0.47,0.63,0.27,2.02-1.06,2.07c-1.21,0.04-1.78,0.41-1.71,1.65
		c0.04,0.75-0.49,0.93-1.11,0.92c-1.06-0.03-1.37,0.55-1.33,1.51c0.02,0.72-0.07,1.44-0.06,2.15c0.02,0.86-0.27,1.32-1.23,1.34
		c-1.07,0.03-1.4-0.49-1.37-1.45C476.76,478.94,476.75,478.22,476.73,477.5z M396.51,286.55c0,0,0-0.01,0-0.01
		c3.98,1.61,8.33,2.51,12.89,2.51c4.23,0,8.28-0.77,12.02-2.17c0,0,0.01,0,0.01,0c2.97-0.7,5.84-1.78,8.52-3.27
		c10.99-6.09,18-20.49,13.69-31.73c0-0.01-0.01-0.01-0.01-0.02c-1.1-13.42-9.9-24.66-21.98-29.27c0,0,0,0,0,0
		c5.16-8.98,16.98-14.75,27.58-12.62c14.71,2.95,25.23,16.96,28.41,31.61c3.18,14.66,0.39,29.91-3.01,44.51
		c-3.19,13.71-7.3,27.97-17.32,37.85c0.99-13.35-12.17-25.86-25.45-24.19c-15.38,0.17-30.61,5.9-42.39,15.77
		c-1.41-2.66-3.07-5.13-4.86-7.35C390.96,302.81,395.35,295.19,396.51,286.55z M463.09,498.59c-1.11,0.05-1.29-0.54-1.28-1.47
		c0-1.03,0.6-1.11,1.4-1.11c0.96-0.01,1.25,0.48,1.15,1.34C464.47,498.31,463.95,498.56,463.09,498.59z M446.77,434.98
		c0-0.16-0.01-0.32,0-0.48c0.28-3.67-0.64-3.34,3.58-3.39c1.07-0.01,1.66,0.32,1.55,1.5c-0.06,0.63-0.05,1.28,0,1.91
		c0.07,1.04-0.17,1.73-1.41,1.59c-0.84-0.09-1.14,0.39-1.09,1.16c0.06,1.07-0.51,1.35-1.48,1.32c-1.06-0.03-1.07-0.72-1.08-1.47
		c-0.01-0.71,0-1.43,0-2.14H446.77z M435.14,486.07c-0.74,0.05-0.88-0.55-0.88-1.15c-0.01-0.56-0.03-1.12-0.02-1.68
		c0.03-1.14,0.17-2.32-1.6-2.18c-0.56,0.04-0.81-0.44-0.82-0.97c-0.01-0.56,0-1.12,0-1.68c-0.01,0-0.02,0-0.02,0
		c0-0.48-0.02-0.96,0-1.44c0.02-0.71,0.46-0.94,1.11-0.95c0.66,0,1.33-0.02,1.41,0.88c0.05,0.55,0.05,1.11,0.07,1.67
		c0.05,1.19-0.13,2.51,1.73,2.46c0.59-0.01,0.73,0.53,0.75,1.04c0.03,0.56,0.04,1.12,0.06,1.67c0.04,1.17-0.26,2.56,1.73,2.32
		c0.58-0.07,0.79,0.47,0.76,0.99c-0.07,1.02,0.38,1.45,1.39,1.41c1.03-0.04,1.06,0.7,1.08,1.47c0.03,0.95-0.47,1.28-1.33,1.27
		c-0.24,0-0.48,0.02-0.72,0.01c-3.31,0-3.08,0.14-3.08-2.91C436.76,487.18,436.92,485.95,435.14,486.07z M441.4,351.16
		c-1.02-0.13-2.01-0.85-2.24-1.86c-0.08-0.38-0.09-0.83-0.1-1.25c-0.03-0.76-0.09-1.47-0.74-1.74c-0.32-0.14-0.72-0.09-1.02-0.29
		c-0.43-0.31-0.36-0.97-0.6-1.45c-0.38-0.78-1.43-0.88-2.3-0.88c-3.16-0.01-6.32-0.01-9.48-0.01c-0.58,0-1.18,0-1.72,0.21
		c-0.61,0.24-1.09,0.73-1.56,1.2c-2.11,2.17-4.23,4.34-6.34,6.51c-0.23,0.23-0.48,0.5-0.49,0.83c-0.01,0.37,0.28,0.68,0.55,0.94
		c2.65,2.56,5.3,5.13,7.95,7.69c0.3,0.29,0.6,0.58,0.8,0.94c0.35,0.63,0.36,1.38,0.36,2.11v12.27c0,0.78-0.09,1.7-0.77,2.07
		c-0.38,0.2-0.84,0.16-1.26,0.18c-3.01,0.18-5.44,3.85-8.31,2.91c-2.16-0.7-2.69-3.52-2.46-5.78c0.22-2.26,0.77-4.75-0.49-6.64
		c-0.74-1.11-1.97-1.77-3-2.62c-1.02-0.86-1.91-2.16-1.55-3.45c0.42-1.49,2.32-2.24,2.61-3.76c0.46-2.41-2.96-3.81-2.46-6.25
		c0.25-1.22,1.66-2.48,2.1-3.75c0.5-1.48,0.68-3.07,0.47-4.62c-0.11-0.83-0.31-1.7,0.04-2.46c0.41-0.88,1.49-1.29,2.47-1.29
		s1.93,0.3,2.9,0.42c4.04,0.49,7.71-2.17,10.91-4.69c5.55-4.37,11.13-8.77,15.83-14.05c0.5-0.56,1.1-1.18,1.85-1.12
		c0.41,0.03,0.77,0.26,1.09,0.52c1.61,1.28,2.61,3.3,2.66,5.36c0.04,2.08-0.71,4.53,0.77,5.99c0.43,0.44,1.03,0.72,1.34,1.26
		c0.28,0.47,0.28,1.05,0.27,1.59c-0.03,1.73-0.06,3.46-0.08,5.2c-0.01,0.64-0.05,1.34-0.48,1.82c-0.41,0.45-1.1,0.59-1.49,1.06
		c-0.39,0.45-0.4,1.1-0.48,1.69c-0.24,1.72-1.22,3.33-2.64,4.33C443.46,350.9,442.43,351.28,441.4,351.16z M411.98,456.97
		c0,0.02,0,0.05-0.01,0.07c-0.17,1.22-1.41,2.46-2.48,1.88c1.17,1.84-0.92,3.91-2.34,5.57c-3.72,4.34-3.26,10.75-2.59,16.43
		c-2.48-0.63-5.24-0.12-7.34,1.35c-2.83,1.97-4.64,5.62-8.03,6.31c-1.09,0.23-2.23,0.1-3.32,0.35c-0.83,0.2-1.59,0.61-2.35,0.98
		c-1.1,0.54-2.22,1.02-3.34,1.49c-3.58,1.51-7.15,3.01-10.73,4.52c-0.98,0.41-2.02,0.87-2.61,1.75c-0.59,0.89-0.46,2.33,0.51,2.75
		c1.07-0.09,2.07-0.55,3.05-0.99c1.74-0.76,3.51-1.46,5.31-2.07c3.56-1.22,7.49-2.14,11.05-0.91c-0.57,2,0.57,4.33,2.49,5.12
		c0.9,2.17-0.36,4.97-2.59,5.72c1.43,0.33,2.59,1.62,2.77,3.07c0.34,2.78-2.44,4.83-4.86,6.23c-2.1,2.44,4.17,5.91,2.33,8.55
		c-0.5,0.73-1.47,1-2.03,1.69c-1.3,1.63,0.46,4.36-0.78,6.04c-0.47,0.63-1.28,0.94-1.77,1.57c-1.09,1.38-0.12,3.37-0.07,5.13
		c0.09,2.91-2.38,5.16-3.79,7.71c-1.47,2.65-1.81,5.82-1.47,8.83c0.15,1.3,0.41,2.71-0.23,3.86c-0.39,0.71-1.08,1.21-1.56,1.87
		c-1.29,1.79-0.79,4.23-0.55,6.43c0.23,2.19-0.22,4.94-2.3,5.67c-0.29,2.11-0.58,4.21-0.88,6.31c-0.24,1.72-0.48,3.44-0.95,5.1
		c-0.76,2.69-2.12,5.2-3.84,7.4c-1.96,2.51-4.41,4.64-7.17,6.23c-0.39,2.11,3.19,2.44,4.74,0.96c1.56-1.47,2.69-3.8,4.82-4
		c0.27,3,0.53,6.14-0.59,8.95c-1.57,3.94-5.47,6.36-9.13,8.5c-0.11,0.07-0.23,0.14-0.34,0.2c-1.29,0.76-2.83,1.54-4.21,0.96
		c-1.65-0.7-2-2.95-1.54-4.69c0.46-1.73,1.47-3.33,1.63-5.11c0.16-1.79-1.09-3.93-2.87-3.73c0.14-4.62,0.25-9.43-1.63-13.66
		c-1.21-2.74-3.21-5.1-5.62-6.88c-0.97-2.67-1.93-5.33-2.89-7.99c-0.31-0.86-0.63-1.72-0.97-2.57c-0.3-0.74-0.63-1.47-0.85-2.23
		c-0.71-2.51-0.18-5.18,0.35-7.73c0.18-0.87,0.37-1.75,0.55-2.62c0.65-3.1,1.29-6.2,1.58-9.35c0.2-2.15,0.12-4.59-1.46-6.06
		c-1.59-1.47-4.97-0.54-4.72,1.6c-4.37-2.47-9.66-3.3-14.57-2.26c0.19,1.77,0.17,1.81-1.59,2.34c-0.59,0.17-0.77,0.52-0.74,1.03
		c0.06,0.97-0.27,1.53-1.35,1.43c-0.86-0.08-1.09,0.41-1.09,1.17c0.01,2.32,0,4.64-0.03,6.96c-0.03,1.85-0.05,1.85-1.87,1.89
		c-3.47,0.08-3.71-0.22-3.31-3.83c0.09-0.74,0.31-1.27,1.12-1.23c1.4,0.07,1.5-0.8,1.5-1.87c-0.03-4.23-0.03-8.47-0.03-12.71
		c0-3.76-0.01-7.52,0.01-11.27c0-0.61-0.18-1.33,0.56-1.69c0.96-0.46,1.94,0.1,1.98,1.2c0.07,1.6,0.07,3.2,0.05,4.8
		c-0.01,0.93,0.19,1.58,1.3,1.5c1-0.06,1.17,0.56,1.17,1.38c-0.01,1.92,0.03,3.84,0.04,5.76c0.01,2.55,0.01,2.57,2.28,3.1v0.04
		c2.12-0.53,2.73-9.1,2.72-10.73c-0.02-4.43,2.24-6.63,4.77-10.31c-0.36-5.29-0.65-10.94,1.96-15.57c0.18-0.32,0.39-0.64,0.7-0.84
		c0.91-0.59,2.06,0.19,2.96,0.79c2.67,1.8,6.18,2.27,9.23,1.25c0.33-0.6,0.66-1.19,0.99-1.79c1.19-2.14,2.37-4.28,3.55-6.43
		c1.18-0.27,1.05-2.07,0.27-3c-0.77-0.93-1.94-1.67-2.11-2.86c-0.11-0.73,0.2-1.45,0.49-2.12c1.56-3.51,3.32-7.25,6.65-9.17
		c0.41-3.49,1.25-6.93,2.48-10.23c1.07-2.88,2.44-5.65,3.81-8.4c1.15-2.34,2.31-4.67,3.46-7c-2.44-3.23-2.87-7.87-1.07-11.5
		c1.55,1.92,4.06,3.02,6.52,2.86c1.15-0.08,2.29-0.4,3.43-0.24c1.13,0.16,2.3,1.05,2.22,2.2c1.95,0.6,5.14,0.15,4.64-1.83
		c3.77,0.53,6.62-3.22,8.56-6.5c0.68-1.16,1.37-2.32,2.05-3.47c1.53-2.58,3.06-5.17,4.59-7.75c3.23-0.64,6.77,1.61,7.56,4.81
		c2.77-1.05,5.38-2.5,7.73-4.29c2.03-1.54,3.91-3.39,4.93-5.73c1.5-0.02,2.46,1.83,2.11,3.3c-0.35,1.46-1.53,2.56-2.64,3.56
		c-2.04,1.82-4.07,3.65-6.1,5.47c-0.62,0.56-1.31,1.35-0.99,2.12c0.34,0.81,1.52,0.89,2.02,1.61c0.55,0.8,0.01,1.94,0.35,2.86
		c0.84,2.29,4.8,0.12,6.71,1.66c1.47,1.19,0.58,3.64-0.78,4.96c-1.37,1.32-3.21,2.43-3.61,4.29
		C411.68,454.46,412.12,455.73,411.98,456.97z M352.98,648.4c1.36-0.05,1.54,0.74,1.51,1.85c-0.06,2.23-0.07,4.47-0.05,6.7
		c0,0.91-0.15,1.59-1.27,1.53c-0.78-0.04-1.21,0.32-1.18,1.13c0.05,1-0.41,1.48-1.41,1.48c-0.84-0.01-1.07,0.52-1.06,1.25
		c0.02,1.52,0,3.04,0.05,4.55c0.03,1.08-0.3,1.62-1.49,1.61c-4.62-0.06-3.71,0.39-3.75-3.59c-0.01-0.56,0-1.12,0-1.68
		c-0.01-1.2-0.22-2.48,1.7-2.43c0.93,0.03,0.75-0.86,0.75-1.46c0.03-2.96,0.03-5.91,0.04-8.87c0-0.88,0.03-1.76-0.01-2.64
		c-0.05-1.15,0.06-2.1,1.59-1.99c0.76,0.06,0.94-0.51,0.92-1.11c-0.05-1.27,0.74-1.4,1.72-1.35c0.72,0.03,1.44,0,2.16,0
		c0,0.01,0,0.01,0,0.02c0.8,0,1.59,0.01,2.39-0.01c0.82-0.02,1.37,0.16,1.39,1.16s-0.3,1.5-1.36,1.45c-0.79-0.04-1.59,0.01-2.39,0
		c-0.76-0.01-1.22,0.26-1.22,1.1C352.01,647.79,352.08,648.44,352.98,648.4z M314.41,511.95c-0.04-0.64-0.05-1.28-0.07-1.92
		c-0.03-0.88,0.09-1.63,1.26-1.52c0.08,0.01,0.16,0,0.24-0.01c0.31-0.04,0.89-0.07,0.82-0.3c-0.79-2.5,3.12-1.62,2.76-4.04
		c-0.32-2.19-0.02-4.47-0.04-6.71c0-0.95,0.23-1.48,1.33-1.48c1.2-0.01,1.23,0.71,1.22,1.56c-0.01,2,0,4,0,6c0.01,0,0.01,0,0.01,0
		c0,2-0.01,4,0.01,6c0.01,0.89-0.08,1.62-1.25,1.52c-1.17-0.1-1.2,0.69-1.24,1.56c-0.18,3.57-0.2,3.57-3.88,3.53
		c-0.72-0.01-1.44-0.04-2.16-0.05c-0.74-0.02-1.49,0-1.55-1.04c-0.06-0.91,0.11-1.64,1.23-1.59
		C314.21,513.51,314.46,512.89,314.41,511.95z M331.87,482.37c0-1.02,0.4-1.4,1.39-1.38c0.92,0.01,1.28,0.42,1.2,1.26
		c0.04,0.82-0.11,1.4-1.12,1.41C332.41,483.66,331.88,483.45,331.87,482.37z M403.77,366.02c0.93,0.01,1.88,0.21,2.79-0.18
		c0.68,2.33,0.14,4.7,0.22,7.04c0.02,0.6-0.44,0.8-0.97,0.8c-2.64,0.01-5.28,0.01-7.91,0.01c-0.66,0-1.06-0.28-1.07-0.99
		c0-0.72-0.11-1.49,0.97-1.57c0.46-0.03,1.2,0.09,1.26-0.42c0.18-1.44,0.75-2.3,2.32-2.31c0.32,0,0.47-0.44,0.43-0.76
		C401.66,366.1,402.61,366.01,403.77,366.02z M419.3,327.02c-0.06-0.58,0.35-0.88,0.9-0.85c1.04,0.07,1.7-0.2,1.6-1.43
		c-0.08-0.82,0.44-1.11,1.19-1.11c0.56,0,1.12-0.04,1.68-0.02c1.19,0.05,2.29,0.03,2.19-1.66c-0.03-0.61,0.48-0.78,1-0.79
		c1.75-0.02,3.51-0.03,5.26-0.05c0.76-0.01,1.22,0.27,1.21,1.11c0,0.73,0.04,1.48-1.03,1.51c-0.52,0.02-1.34-0.1-1.33,0.64
		c0.01,1.38-0.42,1.93-1.9,2c-1.15,0.06-0.21,1.62-0.98,2.15c-0.62,0.42-1.91-0.3-1.99,0.81c-0.09,1.46-0.67,1.91-2.04,1.91
		c-0.72,0.01-0.64,0.8-0.65,1.34c-0.02,0.94-0.55,1.23-1.4,1.21c-1.27-0.02-2.55,0-3.83,0c-0.56,0-1.12,0.05-1.67-0.01
		c-1-0.13-2.38,0.46-2.92-0.46c-0.68-1.15-0.27-2.65-0.21-4c0.02-0.59,0.49-0.74,1.01-0.75c0.64-0.01,1.28-0.05,1.92-0.03
		C418.39,328.57,419.45,328.64,419.3,327.02z M352.41,381.23c-0.82-0.98-1.5-3.55-0.81-5.04c2.3-5,9.47-8.5,15.79-11.58
		c6.99-3.41,20-9.75,24.73-22.65c0.97-2.66,1.51-5.33,1.68-7.96c3.18,4.54,6.66,8.88,10.41,12.98
		c-15.83,8.36-30.14,19.59-42.06,32.94L352.41,381.23z M305.12,454.41c2.75-4.76,5.75-9.38,9-13.82
		c11.99-16.42,27.28-30.54,44.2-40.83l12.89-7.83c0.06,0.04,0.12,0.07,0.18,0.11c-27.49,18.88-48.64,46.85-59.3,78.46
		c17.68-11.37,33.62-25.43,47.1-41.55c-10.97,15.57-21.95,31.14-32.92,46.71c-2.61,3.72-2.29,10.87,0.32,12.11
		c-6.48,1.09-12.95,2.19-19.43,3.28c-0.8,3.32,3.13,6.72,6.3,5.44c-5.63,9-9.41,19.15-11.06,29.64
		C303.31,502.22,304.21,478.31,305.12,454.41z M304.4,552.17h0.03c0-2.39,0.01-4.77,0-7.16c-0.01-0.88,0.08-1.53,1.24-1.54
		c1.15-0.01,1.31,0.6,1.31,1.5c0,4.86,0.01,9.71,0.04,14.57c0,0.92-0.21,1.5-1.31,1.51c-1.11,0.02-1.33-0.54-1.32-1.48
		C304.42,557.1,304.4,554.64,304.4,552.17z M285.51,510.17c1.02-5.24,1.99-10.19,3.16-15.05c1.25-5.19,2.82-10.36,4.66-15.45
		c-0.13,7.34,1.09,14.71,3.76,21.57c-12.7,10.1-18.28,28.31-13.42,43.79c-1.17-3.38-4.22-3.09-7.12-1.09
		C281.02,533.14,283.29,521.54,285.51,510.17z M216.33,729.63c-1.62-9.16-2.84-18.33-3.35-27.35c2.25,5,8.67,8.64,13.67,5.78
		c0.98,5.08,1.96,10.15,2.94,15.22C224.4,723.28,219.73,725.82,216.33,729.63z M293.16,613.46c-10.4-9.6-28-10.06-38.88-1.01
		c6.62,3.67,13.25,7.33,19.88,10.99c-4.53-0.31-10.05,1.58-10.83,6.05c-0.6,3.44,4.29,5.69,6.68,4.49
		c-3.47,4.98-9.12,8.42-15.16,9.11c2.03-2.66,0.67-7.16-2.49-8.24c-3.17-1.08-7,1.65-7.01,4.99c4.18,6.61,13.51,7.16,20.12,11.34
		c6.61,4.17,6.32,18.1-1.3,16.36c4.64-3.25-2.75-10.88-7.68-8.07c-4.93,2.8-5.61,9.55-5.37,15.22c-8.08-2.57-17.72,1.39-21.68,8.89
		c-0.05-7.01-5.62-27.68-13.44-14.23c-2.71,4.67,3.31,30.77,5.9,36.21c-2.11-4.06-5.26-7.56-9.06-10.11
		c-0.05,0.1-0.08,0.19-0.12,0.29c-0.05-3.03-0.01-6.03,0.13-9c0.75-15.84,4.31-29.21,10.86-40.9c0.82-1.47,1.72-2.95,2.66-4.53
		c3.84-6.36,8.18-13.58,9.2-22.43c0.54-4.7,0.03-9.1-0.42-12.98c-0.35-3.07-0.68-5.97-0.41-8.38c0.89-7.99,8.21-14.27,16.68-21.56
		c4.73-4.05,9.61-8.25,13.81-13.17c1.55-1.81,2.95-3.68,4.25-5.6c-2.05,11.54-2.74,23.33-2.03,35.02
		c18.46-7.09,35.49-17.89,49.77-31.58C305.19,576.31,292.57,593.71,293.16,613.46z M331.95,622.31h-0.01c0,0.8-0.01,1.6,0.01,2.4
		c0.02,0.84-0.23,1.44-1.19,1.39c-1.15-0.07-1.27,0.62-1.27,1.52c0.03,3.12,0.02,6.24,0.02,9.35c-0.01,0.71,0.07,1.5-0.98,1.59
		c-0.88,0.07-1.66-0.01-1.6-1.18c0.05-1.24-0.68-1.44-1.69-1.41c-1.44,0.05-2.88,0.04-4.31,0.06c-0.86,0.01-1.65-0.05-1.59-1.23
		c0.06-1.15-0.69-1.26-1.57-1.25c-1.52,0-3.04-0.05-4.56-0.03c-1.01,0.01-1.46-0.43-1.41-1.44c0.03-0.72,0.02-1.44-0.01-2.16
		c-0.03-0.91,0.2-1.57,1.3-1.55c0.95,0.02,1.2-0.59,1.21-1.41c0.01-0.63,0.05-1.27,0.04-1.91c-0.01-0.98,0.15-1.77,1.4-1.74
		c0.82,0.03,1.13-0.44,1.11-1.2c-0.01-0.32,0.02-0.64,0.03-0.96c0.15-2.71,0.15-2.71,2.98-2.71c3.36,0,6.71-0.03,10.07-0.01
		c1.98,0.01,1.98,0.04,2.02,1.97C331.96,621.04,331.95,621.67,331.95,622.31z M340.34,916.26c-2.31-38.45-1.47-77.09,2.53-115.4
		c0.23,38.46,0.47,76.93,0.71,115.4H340.34z M375.12,728.98c-0.7,1.28-0.35,3.09-1.44,4.06c-0.18,0.16-0.38,0.28-0.58,0.4
		c-0.33,0.19-0.66,0.36-0.9,0.65c-0.6,0.71-0.4,1.77-0.6,2.68c-0.25,1.1-1.09,1.96-1.9,2.75c-1.94,1.92-3.89,3.83-5.83,5.74
		c-0.22,0.22-0.47,0.45-0.78,0.46c-0.54,0.03-0.86-0.57-1.03-1.08c-2.76-8.8,3.59-16.89,9.76-22.4c1.55-1.38,3.19-2.73,4.22-4.53
		c1.26-2.21,1.81-5.25,4.21-6.11c0.27-0.09,0.57-0.15,0.83-0.04c0.42,0.18,0.55,0.7,0.63,1.16c0.48,2.75,0.87,5.9-0.89,8.08
		c-0.42,0.52-0.96,0.97-1.24,1.59c-0.38,0.86-0.18,1.87-0.52,2.75C378.39,726.88,376,727.34,375.12,728.98z M376.49,916.24
		c20.68-7.03,41.35-14.05,62.03-21.08c4.02,7.01,8.04,14.03,12.06,21.04L376.49,916.24z M449.99,680.96
		c-1.08,0.36-2.27,0.11-3.38,0.33c-1.57,0.33-2.8,1.55-4.33,2.03c-1.52,0.47-3.72-0.56-3.31-2.1c-3.2,0.31-6.5-0.57-9.12-2.45
		c-0.93,2.04-0.02,4.74,1.96,5.8c-2.14,1.44-4.28,2.89-6.42,4.33c-1.12,0.76-2.25,1.52-3.53,1.91c-1.66,0.51-3.43,0.37-5.16,0.44
		c-6.56,0.26-12.91,3.82-16.56,9.28c-0.93,1.4-1.71,2.93-2.97,4.04c-1.26,1.11-3.19,1.69-4.63,0.83c-0.58-0.35-1.02-0.89-1.59-1.25
		c-1.63-1.02-3.9-0.2-5.11,1.3c-1.22,1.49-1.64,3.45-2.02,5.34c-2.2,0.86-3.73-2.27-3.96-4.62c-0.23-2.36-1.34-5.54-3.66-5.08
		c-0.76,0.15-1.37,0.71-1.93,1.24c-9.49,8.95-19.48,18.8-21.87,31.62c-0.47,2.51-0.67,5.19-2.15,7.27c-1.2,1.7-3.22,2.97-3.54,5.03
		c-0.16,0.99,0.12,2,0.04,3c-0.13,1.5-1.07,2.79-1.97,3.99c-2.67,3.57-5.34,7.15-8.01,10.72c-0.69,0.92-1.47,1.91-2.59,2.18
		c-3.83,0.93-0.03-5.17,0.48-6.73c0.41-1.26,0.39-2.86,1.13-4c0.46-0.7,2.43-1.92,2.58-2.29c1.7-3.96,3.4-7.92,5.1-11.89
		c3.49-8.14,7.01-16.33,11.93-23.7c3.45-5.18,7.59-9.93,12.37-13.92c5.04-4.22,10.75-7.56,16.56-10.63
		c2.17-1.14,4.35-2.24,6.54-3.34c6.27-3.17,12.53-6.33,18.8-9.49c1.38-0.7,2.76-1.4,4.14-2.09c5.71-2.88,11.42-5.76,17.12-8.65
		c5.04-2.54,10.23-5.13,15.84-5.73c3.5-0.37,7.27-0.01,10.29-1.82c0.4-0.24,0.8-0.52,1.25-0.53c0.88-0.03,1.5,0.98,1.4,1.86
		c-0.1,0.87-0.68,1.6-1.25,2.27c-1.64,1.94-3.35,3.81-5.12,5.63c-1.29,1.32-2.61,2.61-3.96,3.86
		C452.14,675.28,452.63,680.08,449.99,680.96z M481.88,909.53c0.03,1.08-0.49,1.37-1.47,1.35c-1.59-0.05-3.19-0.01-4.79-0.01
		c-0.96,0-1.92,0.01-2.88,0.01c-0.64,0-1.28,0-1.92-0.02c-0.97-0.03-1.55,0.24-1.48,1.32c0.06,0.96-0.47,1.23-1.34,1.22
		c-0.91-0.02-1.32-0.4-1.28-1.31c0.04-0.73-0.2-1.27-1.07-1.2c-1.04,0.09-1.44-0.4-1.36-1.4c0.06-0.85-0.43-1.11-1.19-1.11
		c-0.87,0.01-1.75-0.03-2.63-0.02c-0.81,0.01-1.16-0.41-1.17-1.17c0-0.56-0.05-1.12-0.03-1.68c0.06-1.22-0.04-2.17-1.68-2.23
		c-1.35-0.04-0.54-1.45-1.02-2.09c-0.55-0.74-1.99,0.19-2.17-1.01c-0.18-1.17-0.04-2.39-0.03-3.58c0-0.08-0.01-0.19,0.04-0.24
		c0.97-1.06,2.23-0.44,3.35-0.55c0.69-0.06,1.63-0.13,1.61,0.92c-0.03,1.51,0.82,1.62,1.99,1.56c1.43-0.06,2.87-0.01,4.31-0.03
		c0.75-0.01,1.28,0.21,1.21,1.07c-0.11,1.26,0.63,1.43,1.64,1.42c2.96-0.03,5.91,0,8.87-0.02c1.11-0.01,2.12-0.02,2.04,1.55
		c-0.04,0.74,0.56,0.9,1.15,0.89c1.1-0.01,1.32,0.64,1.31,1.56C481.86,906.33,481.83,907.93,481.88,909.53z M549.74,916.15
		l-17.95,0.01c-1.52-3.18-3.04-6.36-4.55-9.54c4.01-1.79,8.03-3.58,12.04-5.37c-2.26,3.97-4.52,7.95-6.78,11.92
		c7-2.5,14.33-4.06,21.74-4.64C552.74,911.07,551.24,913.61,549.74,916.15z M534.65,658.34c0.32-0.01,0.63,0,0.95,0h2.39
		c0.69,0,1.27,0.13,1.29,1.02c0.01,0.82,0.1,1.69-1.1,1.67c-1.05-0.01-1.37,0.52-1.33,1.48c0.03,0.86-0.55,1.05-1.26,1.05
		c-0.56-0.01-1.12-0.02-1.67-0.04c-2.06-0.08-2.06-0.08-2.17-2.13C531.6,658.42,531.6,658.42,534.65,658.34z M559.51,644.83
		c0.67,2.89,2.21,5.59,2.41,8.55c-1.25-0.28-2.5-0.54-3.76-0.78c-9.61-1.81-19.47-2.31-29.22-1.47c-1.56,0.14-3.19,0.34-4.46,1.25
		c-1.08,0.79-1.76,2-2.7,2.96c-1.63,1.67-3.93,2.49-6.17,3.13c-6.37,1.84-12.98,2.82-19.61,2.89c-1.27,0.01-2.68-0.06-3.6-0.94
		c-0.61-0.59-0.93-1.48-1.68-1.87c-0.89-0.47-1.96-0.02-2.86,0.42c-2.85,1.39-5.69,2.77-8.53,4.16c-4.67,2.28-10.14,4.59-14.86,2.41
		c0.06-3.19,0.12-6.38,0.19-9.58c2.61,1.5,6.11,0.07,7.92-2.33c1.81-2.41,2.34-5.51,2.83-8.48c0.58-3.56,1.17-7.12,1.75-10.68
		c0.65-3.99,1.3-7.98,1.84-11.98c1.18-8.86,1.77-17.79,3.04-26.64c0.76-5.35,1.77-10.67,2.78-15.98c0.5-2.63,1-5.26,1.5-7.9
		c1.16-6.12,2.33-12.25,3.49-18.37c1.97-10.35,3.88-20.73,7.08-30.78c4.09-12.86,8.19-25.73,12.29-38.6
		c0.72-2.27,1.82-4.9,4.16-5.38c3.05,1.89,6.11,3.78,9.17,5.68c-1.64,3.38-3.27,6.76-4.9,10.14c-0.42,0.87-0.85,1.87-0.49,2.77
		c0.75,1.83,3.61,1.11,4.95-0.34c1.34-1.45,2.55-3.47,4.52-3.54c0.81,5.59-1.59,11.53-6.05,14.99c-0.92-2.99-5.39-2.11-8.14-0.62
		c-2.03,1.1-4.05,2.2-6.07,3.29c-0.68,0.37-1.39,0.78-1.72,1.47c-0.24,0.51-0.23,1.1-0.24,1.67c-0.17,7.17-4.87,14.63-1.69,21.07
		c1.3,1.98,4.29-0.25,5.32-2.39c2.22-4.63,3.7-9.61,4.38-14.69c1.55,1.73,3.87,2.74,6.19,2.7c1.04-2.29,2.96-4.18,5.26-5.19
		c0.81,1.27,0.35,2.92-0.15,4.33c-1.28,3.58-2.68,7.12-4.08,10.65c-2.66,6.7-5.31,13.4-7.97,20.1c-0.83,2.09-1.66,4.17-2.52,6.25
		c-3.05,7.31-6.57,14.43-10.52,21.3c-1.49,2.59-3.04,5.14-4.35,7.83c-2.45,5.02-4.01,10.46-4.61,16.01
		c-0.27,2.55-0.51,5.46-2.55,7.04c0.5,6.81-1.67,13.49-3.67,20.02c-1.97,6.45-3.8,12.94-5.47,19.48c-0.67,2.58-0.24,6.56,2.42,6.35
		c2.18-0.42,4.36-0.84,6.54-1.26c7.86-1.5,15.72-3,23.58-4.51c3.64-0.7,7.29-1.39,10.93-2.09c2-0.38,4.03-0.77,6.04-0.55
		c2.9,0.31,5.55,1.84,8.45,2.13c3.73,0.39,7.37-1.32,10.53-3.34c3.05-1.95,5.89-4.23,8.45-6.79c2.04-2.04,5.72-4.19,7.26-1.75
		C559.44,638.28,558.84,641.94,559.51,644.83z M516.74,377.22c-0.02-0.79,0.33-1.16,1.14-1.15c1.75,0.01,3.51,0.01,5.27-0.03
		c0.91-0.02,1.3,0.38,1.29,1.28c-0.03,1.68-0.01,3.36-0.01,5.04h-0.03c0,1.6-0.03,3.19,0.01,4.79c0.03,0.96-0.25,1.49-1.33,1.48
		c-2.56-0.04-5.12-0.01-7.68,0.01c-0.76,0.01-1.21-0.27-1.17-1.11c0.01-0.23-0.01-0.48-0.07-0.71c-0.35-1.22-1.95-0.03-2.31-1.16
		c-0.26-0.83,0.14-2.06-1.43-1.96c-1,0.06-1.12-0.65-1.13-1.44c-0.01-0.95,0.52-1.25,1.36-1.25c0.48,0,0.96-0.01,1.44-0.02
		c0.4-0.01,0.8,0,1.2-0.06c0.22-0.03,0.61-0.22,0.61-0.26C513.38,378.3,516.78,379.16,516.74,377.22z M563.05,325.52
		c-0.05,0.04-0.09,0.07-0.14,0.11c-0.69,0.49-1.54,0.75-2.21,1.26c-1.24,0.96-1.7,2.63-2.75,3.78c-2.53,2.77-7.34,1.68-10.38,3.88
		c-2.84,2.05-3.34,6.4-6.29,8.27c-2.75,1.75-6.32,0.63-9.56,0.32c-1.21-0.12-2.59-0.05-3.41,0.85c-0.82,0.9-0.33,2.79,0.88,2.71
		c-1.65,3.52-6.47,5.13-9.91,3.31c1.81-2.59,3.61-5.18,5.42-7.77c0.5-0.71,1.02-1.49,1.01-2.35c-0.02-1.51-1.63-2.78-1.33-4.26
		c0.57-2.82,5.94-0.98,7.29-3.52c-2.1,0.35-4.11-1.34-4.84-3.33c-0.73-2-0.47-4.21-0.13-6.31c1.38-8.5,4-16.81,4.73-25.4
		c0.44-5.19-0.26-11.25-4.59-14.13c-2.48-1.65-5.73-1.91-8.1-3.71c-1.92-1.45-3.01-3.7-4.04-5.87c-4.38-9.26-8.77-18.53-13.15-27.79
		c-1.18-2.48-2.38-5.26-1.59-7.89c0.27-0.9,0.77-1.76,0.77-2.7c0-3.21-4.34-4.29-4.87-7.32c-0.75-4.36,4.19-9.28,6.8-12.14
		c4.26-4.7,8.53-9.39,12.8-14.09c1.57-1.72,3.25-3.52,5.49-4.18c2.52-0.74,5.3,0.17,7.41,1.74c2.11,1.58,3.67,3.76,5.2,5.9
		c0.72,1.01,1.26,2.75,0.1,3.2c-0.46,0.19-0.99,0.01-1.44-0.21c-2.19-1.07-4.93-3.02-6.64-1.28c-1.08,1.1-0.71,2.92-0.27,4.41
		c1.2,3.99,2.39,7.97,3.59,11.96c0.28,0.96,0.44,2.25-0.45,2.71c-0.81,0.42-1.79-0.35-2.09-1.22s-0.2-1.82-0.46-2.7
		c-0.52-1.81-2.7-2.95-4.48-2.34c-1.79,0.6-2.83,2.82-2.15,4.58c0.79,2.06,3.49,3.99,2.24,5.81c-0.56,0.81-1.65,0.99-2.62,1.19
		c-3.04,0.63-6.17,2.44-7,5.44c-0.82,3,2.06,6.74,5.01,5.73c1.76-0.6,2.7-2.43,3.87-3.88c1.17-1.44,3.31-2.62,4.79-1.5
		c0.65,0.49,0.97,1.3,1.19,2.09c0.98,3.46,0.62,7.55-1.89,10.13c-2.51,2.58-7.43,2.72-9.41-0.29c-2.56,1.75-3.88,5.14-3.17,8.16
		c0.7,3.02,3.39,5.48,6.46,5.91c1.58-1.77-2.71-4.94-0.89-6.47c0.68-0.57,1.69-0.29,2.56-0.15c4.85,0.79,8.87-3.94,10.45-8.59
		c1.57-4.66,1.91-9.86,4.77-13.86c1.36,2.02,1.33,4.63,1.89,6.99c1.85,7.8,9.81,12.53,13.55,19.62c4.61,8.74,2.12,19.43,3.91,29.15
		c1.96,10.64,9.08,20.06,9.66,30.87C564.74,322.23,564.52,324.36,563.05,325.52z M626.5,643.15c-0.31,0.87-0.94,1.53-1.74,1.97
		c-1.02,0.57-2.31,0.79-3.48,0.65c-2.09-0.25-3.97-1.33-5.91-2.15c-4.48-1.91-9.91-2.39-14.07,0.15c-4.64,2.84-6.53,8.52-8.07,13.74
		c-2.37-3.56-4.75-7.11-7.12-10.67c-0.93-1.38-2.6-2.95-3.98-2.02c-0.64,0.43-0.88,1.24-1.34,1.85c-1.42,1.91-4.69,1.31-6.11-0.6
		c-3.27-4.4-0.77-11.35,4.8-11.85c2.78-0.25,5.57,0.57,8.35,0.34c5.21-0.44,9.33-4.39,13.35-7.74c4.02-3.36,9.23-6.47,14.21-4.86
		c2.78,0.89,4.95,3.13,7.7,4.11c1.15,0.41,2.45,0.64,3.24,1.57c1.8,2.15-0.79,5.22-0.91,8.02
		C625.3,638.22,627.35,640.74,626.5,643.15z M661.34,622.01c-0.18,0.54-0.42,1.11-0.91,1.4c-0.7,0.43-1.55,0.1-2.32-0.31
		c-0.17-0.09-0.33-0.19-0.49-0.28c-5.82-3.32-13.04-1.72-19.74-1.47c-2.01,0.08-4.19-0.03-5.76-1.29c-0.76-0.61-1.42-1.51-2.4-1.58
		c-0.49-0.04-0.98,0.15-1.48,0.12c-2.52-0.17,1.22-4.15,2.12-4.58c1.44-0.7,3.58-0.14,3.93,1.42c0.17,0.73-0.07,1.55,0.31,2.2
		c0.45,0.79,1.53,0.88,2.44,0.87c3.51-0.02,7.01-0.03,10.52-0.05c1.03-0.01,2.13-0.03,3.03-0.55c0.89-0.53,1.47-1.75,0.94-2.64
		c-0.23-0.4-0.63-0.66-1.02-0.91c-2.96-1.89-6.24-3.87-9.73-3.42c-0.89,0.11-1.81,0.39-2.68,0.13c-0.87-0.25-1.55-1.36-0.99-2.07
		c0.48-0.61,1.42-0.45,2.2-0.54c1.73-0.19,2.91-1.77,4.1-3.05c1.18-1.29,3.04-2.45,4.57-1.61c0.98,0.53,1.4,1.69,1.85,2.72
		c1.72,3.97,4.96,7.27,8.9,9.06c0.77,0.35,1.59,0.66,2.18,1.27C662.17,618.15,661.92,620.28,661.34,622.01z"/>
</g>
</svg>
