<?xml version="1.0" encoding="utf-8"?>
<!-- Generator: Adobe Illustrator 27.9.0, SVG Export Plug-In . SVG Version: 6.00 Build 0)  -->
<svg version="1.1" id="Layer_1" xmlns="http://www.w3.org/2000/svg" xmlns:xlink="http://www.w3.org/1999/xlink" x="0px" y="0px"
	 viewBox="0 0 1000 1000" style="enable-background:new 0 0 1000 1000;" xml:space="preserve">
<style type="text/css">
	.st0{fill:#030100;}
	.st1{fill:#020101;}
	.st2{fill:#F00F00;}
	.st3{fill:#FCF800;}
</style>
<g>
	<path d="M860.76,423.54c-2.07-4.36-6.28-6.46-10.06-9.01c-38.07-25.69-80.25-41.25-124.83-51.25c-22.1-4.95-45.52-6.76-63.67-22.71
		c-11.71-10.3-22.77-21.22-36.98-28.5c-6-3.07-9.52-4.49-13.27,2.34c-3.93,7.15-9.24,8.19-17.66,5.58
		c-7.84-2.43-3.12-7.56-5.07-10.66c-7.85-12.47-4.42-33.69-26.76-35.2c-0.79-0.05-1.48-1.39-2.25-2.1
		c-10.1-9.22-19.42-10.38-31.5-4.81c-13.83,6.37-25.36,14.95-34.87,27.23c-5.7,7.36-9.32,13.26-5.61,22.46
		c1.17,2.91,3.4,8.25-2.26,9.6c-6.72,1.6-13.38,4.79-20.64,2.79c-19.02-5.22-37.01-2.62-53.54,7.91
		c-16.31,10.39-30.58,5.72-44.44-4.71c-4.48-3.38-26.89-34.39-135.73,7.56c-26.83,9.86-54.62,11.22-82.23,15.01
		c-7,0.96-14.04,0.14-20.97-1.26c-21.36-4.31-33.94,4.19-39.07,25.79c-2.89,12.16-10.07,56.36,5.3,48.34
		c16.9-8.83,35.02-14.26,53.05-20.02c4.83-1.54,7.88,0.53,11.21,3.5c14.54,12.93,24.4,28.7,30,47.28
		c4.24,14.06,8.82,28.01,13.17,42.04c2.1,6.77,5.28,9.54,13.09,6.76c15.92-5.68,32.76-7.41,49.48-9.38
		c13.82-1.62,26.9,0.04,39.84,6.17c23.42,11.09,47.36,21.11,71.15,31.42c7.51,3.25,14.27,7.25,18.66,14.42
		c-2.61-9.78-5.34-19.54-7.8-29.36c-1.86-7.41,0.98-12.55,6.33-18.36c8.73-9.48,19.02-16.75,28.88-24.69
		c9.07-7.3,27.95-4.13,32.47,6.12c1.13-4.41-3.99-10.1,2.72-12.01c5.98-1.7,10.12,1.67,12.95,6.52
		c12.07,20.62,12.16,41.99,3.85,63.82c-17.86,3.06-20.08,1.3-23.9-17.02c-1.85-8.86-1.33-17.62-0.29-26.46
		c-6.11,11.97-3.04,24.15-0.37,36.11c0.94,4.2,1.4,7.79-0.75,11.45c-21.05-1-24.39-4.74-25.64-26.55
		c-0.5-8.59,1.89-17.39-1.86-25.75c0.51,16.6-4.88,33.78,4.99,49.5c2.35,3.74-0.78,5.03-3.23,6.2c-6.61,3.14-13.25-0.29-16.5-8
		c-3.19-7.56-3.24-16.27-9.09-25.7c0.89,14.97,8.14,25.82,8.02,38.22c3.59-1.62,6,0.99,8.56,2.57
		c16.75,10.29,33.86,19.88,52.77,25.67c4.55,1.39,5.47,4.04,5.92,8.42c1.62,15.63,3.74,31.21,5.87,46.78
		c0.76,5.52,2.01,11,6.42,15.05c-5.46-14.16-5.81-29.29-8.2-44.02c-0.61-3.77-0.48-9.07,4.53-8.91c4.79,0.15,2.89,5.55,2.97,8.6
		c0.48,17.14,2.23,34.1,5.93,50.85c0.65,2.93,2.12,6.22-1.75,8.29c7.92,9.59,10.8,21.52,15.19,32.74
		c14.36,3.14,22.76,13.18,29.91,27.39c-7-6.92-15.38-8.06-21.71-13.11c1.07,9.18,9.92,10.52,15.45,15.19
		c3.07,2.59,7.88,2.53,10.12,6.47c3.52,0,7.04,0,10.56,0c3.89-3.36,9.39-4.35,12.07-9.66c7.97-15.76,10.65-32.76,5.2-48.99
		c-6.64-19.76-2.97-40.27-9.21-61.15c3.73,2.19,5.8,3.47,7.92,4.63c15.44,8.48,20.85,7.57,32.99-5.39
		c9.13-9.75,16.1-20.84,16.24-34.43c0.18-18.68,8.62-29.68,24.57-40.26c30.17-20.03,61.35-24.18,95.52-16.8
		c8.22,1.77,14.81,5.46,20.47,11.83c13.07,14.73,63.38,48.85,72.87,13.53c7-21.82,15.91-42.7,30.32-60.87
		c5.58-7.04,11.35-9.75,20.68-5.35c13.02,6.13,25.76,12.49,37.6,21.28C890.17,481.66,874.76,453.07,860.76,423.54z M427.68,447.15
		c-2.28,2.1-4.76,0.25-6.62-1.2c-19.67-15.28-22.96-8.97-37.31,9.22c6.22-21,23.48-25.06,40.92-30.56
		c-5.79,6.84,0.37,10.35,2.67,14.83C428.63,441.94,430.26,444.78,427.68,447.15z M432.77,418.49c-3.98,1.67-8.6,1.82-14.62,2.91
		c3.5-6.17,7.26-8.68,11.33-10.65c2.43-1.18,6.06-2.78,7.46,0.24C438.37,414.07,435.28,417.43,432.77,418.49z M432.19,389.68
		c-8.19-1.41-15.04,1.06-22.08,4.97c3.85-9.79,10.75-15.64,20.85-17.04c4.82-0.67,10.19,1.02,10.55,5.92
		C441.85,388.17,436.23,390.38,432.19,389.68z M599.35,417.37c0.43,0.54,0.87,1.07,1.3,1.61c-5.49,6.64-10.81,13.44-16.56,19.85
		c-2.19,2.44-5.72,5.73-8.82,2.73c-2.67-2.59,0.59-6.21,2.68-7.95C584.82,427.88,592.18,422.74,599.35,417.37z M497.69,372.67
		c5.43-1.25,3.64,3.95,4.17,6.4c1.81,8.39,4.87,15.94,11.81,21.45c-5.09-7.36-5.8-16.47-9.29-24.23
		c-6.48-14.41-0.75-28.71-2.19-42.93c-0.37-3.6,13.31-9.32,17.14-6.56c3.1,2.24,14.2,0.25,7.44,10.56c4.45-3.35,9.74-5.83,2.5-11.9
		c-4.61-3.86-2.83-6.13,2.42-5.89c10.45,0.48,20.15-1.53,29.09-7.12c4.3-2.69,6.79,0.86,8.58,3.55
		c8.42,12.64,11.7,26.79,11.02,41.85c-0.2,4.4-2.19,7.68,0.19,13.3c3.09,7.27,1.69,17.27-2.26,25.56c1.44-2.1,4.37-4.33,4.16-0.12
		c-0.44,8.7-1.32,17.15-0.22,26.01c0.71,5.74-7.35,6.16-11.1,9.36c-3.35-2.3,1.86-5.51-1.71-7.69c-3.58,3.81-3.43,15.02-13.31,7.48
		c-2.1,2.77-3.03,6.84-8.36,5.02c-5.92-2.03-11.37-3.64-15.93-8.9c-6.84-7.9-15.11-14.58-22.95-21.59
		c-7.5-6.7-12.58-14.93-16.3-24.13C490.47,376.89,493.21,373.71,497.69,372.67z M476.2,552.4c-7.65,4.35-16.31,2.86-24.48,4.2
		c-3.71,0.61-4.08-4.23-7.25-5.57c-1.45-0.61,3.69-1.75,4.08-4.45c8.51-0.48,17.68,2.83,25.05-4.13c4.39-0.68,6.96-3.01,6.94-7.65
		c-0.02-3.7,2-6.6,3.68-9.7C492.19,535.94,489.54,544.81,476.2,552.4z M486.23,450.93c-3.33,0.66-3.34-1.35-3.23-3.65
		c0.39-7.83,9.1-14.73,16.44-11.63c13.84,5.86,27.97,4.94,42.31,4.18c5.94-0.31,11.93,0.04,17.87,0.38c2.51,0.14,4.64,1.44,5.36,4.1
		c-0.84,3.23-3.12,2.68-5.05,1.94c-13.01-4.98-25.65-1.01-38.17,1.88C509.98,450.84,497.95,448.6,486.23,450.93z M507.01,464.31
		c-1.63,0.26-3.88,1.14-4.58,0.45c-1.46-1.43-0.09-3.29,1.38-4.29c4.08-2.78,8.55-1.98,14.27-1.1
		C514.44,462.72,509.16,460.55,507.01,464.31z M511.37,471.21c-2.98,3.56-4.26,7.94-5.6,12.3c-0.6,1.94,0.09,5.84-3.98,4.29
		c-3.06-1.17-5.47-3.15-3.61-7.23c2.56-5.58,7.9-9.61,8.97-15.99C511.48,464.79,517.65,463.7,511.37,471.21z M503.43,546.53
		c-5.43-2.32-11.72-6.89-8.8-16.57c11.95,9.42,26.95,6.36,42.55,12.27C524.64,548,514.06,551.07,503.43,546.53z M542.68,578.61
		c11.37-5.45,22.82-4.69,36.12-7.08C563.13,587.46,560.1,588,542.68,578.61z M586.7,513.5c-4.73,2.97-9.93,9.6-15.05,0.03
		c-2.19-4.09-6.66-4.66-12.41-5.64c8.21-1.87,14.95-3.51,21.75-4.89c2.94-0.59,6.53-1.89,8.16,2.07
		C590.48,508.28,589.38,511.82,586.7,513.5z M605.44,470.57c-3.92-2.4-9.58-0.1-14.42,0.87c-15.12,3.02-30.26,5.91-45.41,8.74
		c-3.1,0.58-7.29,1.27-8.49-2.05c-1.25-3.46,2.87-5.17,5.39-6.77c14.27-9.06,30.56-14.22,46.78-13.73
		c7.79,0.24,14.29,2.95,22.16-1.75c6.91-4.12,7.77-10.93,11.04-16.98c5.41,3.68,6.03,7.82,3.24,12.91
		c-2.01,3.68-3.74,7.52-5.57,11.3C617.17,469.28,615.4,476.66,605.44,470.57z M612.46,516.92c6.52-10.91,16.63-16.13,22.32-27.35
		C635.79,506.03,626.02,511.71,612.46,516.92z M626.1,398.81c-3.94-1.32-10.28-0.48-9.36-6.95c0.52-3.62,0.24-10.09,6.95-9.72
		c6.5,0.36,11.99,4.31,12.64,10.34C636.95,398.13,630.58,398.06,626.1,398.81z M654.96,353.6c-1.8,5.72-7.92,1.7-12.03,0.73
		c-4.29-1.01-8.23-0.95-12.35,0.69c-2.31,0.92-5.23,3.63-7.37-0.07c-1.7-2.95-1.15-6.29,0.67-9.03c3.49-5.25,8.84-6.53,16.05-6.09
		c1.18,0.22,3.88,0.14,5.95,1.24C650.92,343.74,656.76,347.9,654.96,353.6z M745.9,425.33c-6.52-2.41-11.78-6.57-15.83-12.33
		c7.22,1.19,13.28,4.08,17.27,10.15C747.54,423.47,746.11,425.41,745.9,425.33z M782.08,453.29c-23.6,0.65-38.52-11.43-30.63-33.54
		c13.58,10.05,25.95,21.43,41.14,29.99c-5.99-0.91-11.99-1.83-20.07-3.06C776.59,449.49,779.16,451.26,782.08,453.29z"/>
	<path d="M575.15,401.96c-6.97,4.93-8.6,16.2-18.85,16.93c-8.8,0.63-17.84,3.1-26.5-1.11C545.29,431.44,569.86,422.87,575.15,401.96
		z"/>
	<path d="M556.36,355.46c9.68,1.62,10.42-9.85,20.42-11.22c-6.26-1.89-23.34,4.82-24.23,7.95
		C551.58,355.59,553.52,354.99,556.36,355.46z"/>
	<path d="M537.09,354.78c-8.93-1.69-16.43-6.77-27.38-4.89C519.38,355.08,526.3,363.39,537.09,354.78z"/>
</g>
</svg>
